<?xml version="1.0" encoding="UTF-8" standalone="no"?>
<svg
   xmlns:dc="http://purl.org/dc/elements/1.1/"
   xmlns:cc="http://creativecommons.org/ns#"
   xmlns:rdf="http://www.w3.org/1999/02/22-rdf-syntax-ns#"
   xmlns:svg="http://www.w3.org/2000/svg"
   xmlns="http://www.w3.org/2000/svg"
   viewBox="0 0 192 143.30667"
   height="143.30667"
   width="192"
   xml:space="preserve"
   id="svg2"
   version="1.1"><metadata
     id="metadata8"><rdf:RDF><cc:Work
         rdf:about=""><dc:format>image/svg+xml</dc:format><dc:type
           rdf:resource="http://purl.org/dc/dcmitype/StillImage" /></cc:Work></rdf:RDF></metadata><defs
     id="defs6" /><g
     transform="matrix(1.3333333,0,0,-1.3333333,0,143.30667)"
     id="g10"><g
       transform="scale(0.1)"
       id="g12"><path
         id="path14"
         style="fill:#093455;fill-opacity:1;fill-rule:nonzero;stroke:none"
         d="M 1206.76,204.082 1038.98,571.871 876.953,204.082 H 849.531 L 642.848,869.449 H 748.047 L 879.844,426.914 1033.32,768.043 h 19.9 l 154.49,-339.313 132.68,440.719 h 99.53 L 1234.28,204.082 Z M 507.387,462.852 H 343.418 V 558.59 H 606.934 V 252.461 C 540.566,210.742 460.043,186.113 363.34,186.113 166.191,186.113 0.335938,326.445 0.335938,536.77 c 0,222.781 174.426062,352.64 372.457062,352.64 68.285,0 129.859,-9.476 186.734,-31.265 v -98.594 h -0.914 c -58.804,24.64 -126.097,35.054 -184.883,35.054 -170.562,0 -262.523,-110.898 -262.523,-256.851 0,-150.684 107.117,-257.793 257.836,-257.793 53.984,0 97.562,7.559 138.344,27.461 v 155.43" /><path
         id="path16"
         style="fill:#aa9a5c;fill-opacity:1;fill-rule:nonzero;stroke:none"
         d="m 0,984.152 v 90.688 H 1440 V 984.152 Z M 0,0 V 90.6836 H 1440 V 0 H 0" /></g></g></svg>