<svg xmlns="http://www.w3.org/2000/svg" fill="none" viewBox="0 0 186 45">
  <path fill="#fff" d="M20.2984 31.5162v6.3168H.779297V6.58392H7.62507V31.5162H20.2984Zm3.0234-14.8759h6.5794v21.1912h-6.5794V16.6403Zm3.2904-10.52665c1.012.00019 1.9824.40216 2.6981 1.11755.7156.7154 1.118 1.68568 1.1185 2.69759 0 2.10901-1.7098 3.81371-3.8173 3.81371s-3.8144-1.7055-3.8144-3.81371c.0006-1.01154.4026-1.98149 1.1178-2.69682.7152-.71533 1.6851-1.11755 2.6966-1.11832M71.4324 16.6381h8.0555l-8.6361 9.7973 8.4562 11.3961h-8.2603l-6.9814-10.4686h-.085v10.4686h-6.5772V6.58174h6.5772V25.2583l7.4511-8.6202Zm-37.8916.0124h6.3152v2.9029h.0871c.8767-1.667 3.0263-3.4204 6.2267-3.4204 6.668 0 7.8959 4.3856 7.8959 10.0862v11.6116H47.487V27.5284c0-2.4573-.045-5.6135-3.4225-5.6135-3.4203 0-3.945 2.6757-3.945 5.4378V37.825H33.54V16.6505h.0008Zm59.8049 8.1237c.0435-2.1931-1.6677-4.035-4.038-4.035-2.8934 0-4.4733 1.974-4.6468 4.035h8.6848Zm5.5692 9.3837c-2.1046 2.6757-5.5685 4.2121-8.999 4.2121-6.578 0-11.8417-4.3885-11.8417-11.1863 0-6.7979 5.2637-11.1762 11.8417-11.1762 6.1454 0 10.0005 4.3855 10.0005 11.1762v2.061H84.6529c.5226 2.5001 2.4116 4.1221 4.9567 4.1221 2.1496 0 3.596-1.0885 4.6933-2.5886l4.612 3.3797Zm14.7101-12.3896c-3.287 0-5.26 2.1946-5.26 5.3936 0 3.2048 1.974 5.395 5.26 5.395 3.292 0 5.267-2.1902 5.267-5.395-.001-3.199-1.974-5.3936-5.267-5.3936m11.322 16.053h-6.054v-2.8085h-.086c-1.012 1.5349-3.554 3.334-6.537 3.334-6.318 0-10.484-4.5598-10.484-11.0093 0-5.9219 3.684-11.3605 9.736-11.3605 2.722 0 5.265.7453 6.749 2.8064h.086V6.58174h6.582l.008 31.23956Z"/>
  <path fill="#fff" fill-rule="evenodd" d="M134.801.02118h37.815c1.811 0 3.285 1.43258 3.285 3.19755V41.1938c0 1.7664-1.475 3.2005-3.285 3.2005h-37.815c-1.807 0-3.276-1.4333-3.276-3.2005V3.21873c0-1.76497 1.461-3.19755 3.276-3.19755ZM148.814 16.657h6.313v2.8862h.087c.871-1.6648 3.026-3.4203 6.227-3.4203 6.665 0 7.895 4.3863 7.895 10.0876v11.6152h-6.575V27.5204c0-2.4559-.045-5.6149-3.421-5.6149-3.425 0-3.95 2.675-3.95 5.4371v10.4759h-6.575l-.001-21.1615Zm-10.709 0h6.582v21.1767h-6.582V16.657Zm5.989-9.40808c-.715-.71531-1.685-1.11762-2.697-1.11858-1.012 0-1.982.40188-2.698 1.1173s-1.118 1.68581-1.119 2.69785c0 1.01231.403 1.98301 1.118 2.69881.716.7157 1.687 1.1178 2.699 1.1178 1.012-.001 1.982-.4035 2.697-1.1191.715-.7156 1.117-1.6859 1.117-2.69751 0-1.01141-.402-1.98126-1.117-2.69657Z" clip-rule="evenodd"/>
  <path fill="#fff" d="M182.368 44.4312c-.476 0-.922-.0888-1.339-.2663-.413-.1776-.775-.4223-1.087-.7342-.312-.3167-.557-.6814-.734-1.094-.178-.4127-.267-.8566-.267-1.3316 0-.4703.089-.9118.267-1.3244.177-.4127.422-.775.734-1.0869.312-.3167.674-.5614 1.087-.7342.417-.1775.863-.2663 1.339-.2663.47 0 .911.0888 1.324.2663.413.1728.775.4175 1.087.7342.312.3119.556.6742.734 1.0869.178.4126.266.8541.266 1.3244 0 .475-.088.9189-.266 1.3316-.178.4126-.422.7773-.734 1.094-.312.3119-.674.5566-1.087.7342-.413.1775-.854.2663-1.324.2663Zm0-.7198c.494 0 .945-.1223 1.353-.3671.412-.2447.739-.571.979-.9789.244-.4078.367-.8613.367-1.3603 0-.4991-.123-.9525-.367-1.3604-.24-.4079-.567-.7318-.979-.9717-.408-.2447-.859-.3671-1.353-.3671-.5 0-.955.1224-1.368.3671-.408.2399-.734.5638-.979.9717-.245.4079-.367.8613-.367 1.3604 0 .499.122.9525.367 1.3603.245.4079.571.7342.979.9789.413.2448.868.3671 1.368.3671Zm-1.174-1.0652v-3.3326h1.461c.298 0 .555.1056.771.3167.216.2111.326.4654.331.763 0 .1871-.055.3742-.166.5614-.11.1823-.264.3191-.46.4103l.633 1.2812h-.619l-.569-1.1805h-.842v1.1805h-.54Zm.54-1.6915h.914c.144 0 .271-.0552.382-.1656.115-.1103.172-.2423.172-.3958 0-.1728-.059-.3096-.179-.4103-.116-.1056-.24-.1584-.375-.1584h-.914v1.1301Z"/>
</svg>
